<svg width="257" height="40" viewBox="0 0 257 40" fill="none" xmlns="http://www.w3.org/2000/svg">
<path d="M64.1031 5H63.0291V15.1718C62.4245 14.1591 61.6448 13.3544 60.6901 12.7577C59.7513 12.1429 58.7091 11.8354 57.5635 11.8354C56.6565 11.8354 55.8053 12.0344 55.0097 12.4322C54.2141 12.8119 53.514 13.3454 52.9094 14.0326C52.3207 14.7016 51.8513 15.4882 51.5012 16.3924C51.1671 17.2966 51 18.264 51 19.2948C51 20.3255 51.1671 21.2929 51.5012 22.1971C51.8513 23.1013 52.3207 23.8969 52.9094 24.5841C53.514 25.2532 54.2141 25.7866 55.0097 26.1844C55.8053 26.5642 56.6565 26.7541 57.5635 26.7541C58.4227 26.7541 59.2342 26.5823 59.9979 26.2387C60.7617 25.877 61.43 25.3888 62.0028 24.774C62.5915 24.1591 63.0689 23.4358 63.4348 22.604C63.8167 21.7722 64.0395 20.877 64.1031 19.9186V5ZM57.5635 25.5063C56.8157 25.5063 56.1076 25.3436 55.4393 25.0181C54.771 24.6926 54.1903 24.2495 53.697 23.689C53.2037 23.1284 52.8139 22.4684 52.5275 21.7089C52.2411 20.9494 52.0979 20.1447 52.0979 19.2948C52.0979 18.4448 52.2411 17.6401 52.5275 16.8807C52.8139 16.1212 53.2037 15.4611 53.697 14.9005C54.1903 14.34 54.771 13.8969 55.4393 13.5714C56.1076 13.2459 56.8157 13.0832 57.5635 13.0832C58.3113 13.0832 59.0194 13.2459 59.6877 13.5714C60.356 13.8969 60.9367 14.34 61.43 14.9005C61.9232 15.4611 62.3131 16.1212 62.5995 16.8807C62.8859 17.6401 63.0291 18.4448 63.0291 19.2948C63.0291 20.1447 62.8859 20.9494 62.5995 21.7089C62.3131 22.4684 61.9232 23.1284 61.43 23.689C60.9367 24.2495 60.356 24.6926 59.6877 25.0181C59.0194 25.3436 58.3113 25.5063 57.5635 25.5063ZM78.0155 18.698L79.0895 19.1591V26.7541H78.0155V18.698ZM72.5499 26.7541C71.6429 26.7541 70.7917 26.5642 69.9961 26.1844C69.2164 25.7866 68.5243 25.2532 67.9196 24.5841C67.3309 23.8969 66.8615 23.1103 66.5115 22.2242C66.1773 21.3201 66.0103 20.3526 66.0103 19.3219C66.0103 18.2911 66.1773 17.3237 66.5115 16.4195C66.8615 15.5154 67.3309 14.7288 67.9196 14.0597C68.5243 13.3725 69.2164 12.8391 69.9961 12.4593C70.7917 12.0615 71.6429 11.8626 72.5499 11.8626C73.4568 11.8626 74.3081 12.0615 75.1037 12.4593C75.8992 12.8391 76.5914 13.3725 77.1801 14.0597C77.7848 14.7288 78.2541 15.5154 78.5883 16.4195C78.9383 17.3237 79.1134 18.2911 79.1134 19.3219C79.1134 20.3526 78.9383 21.3201 78.5883 22.2242C78.2541 23.1103 77.7848 23.8969 77.1801 24.5841C76.5914 25.2532 75.8992 25.7866 75.1037 26.1844C74.3081 26.5642 73.4568 26.7541 72.5499 26.7541ZM72.5499 13.1103C71.802 13.1103 71.094 13.2731 70.4257 13.5986C69.7733 13.9241 69.2005 14.3671 68.7073 14.9277C68.214 15.4882 67.8242 16.1483 67.5378 16.9078C67.2514 17.6673 67.1081 18.472 67.1081 19.3219C67.1081 20.1718 67.2514 20.9765 67.5378 21.736C67.8242 22.4774 68.214 23.1284 68.7073 23.689C69.2005 24.2495 69.7733 24.6926 70.4257 25.0181C71.094 25.3436 71.802 25.5063 72.5499 25.5063C73.2977 25.5063 74.0058 25.3436 74.6741 25.0181C75.3423 24.6926 75.9231 24.2495 76.4164 23.689C76.9096 23.1284 77.2995 22.4774 77.5859 21.736C77.8723 20.9765 78.0155 20.1718 78.0155 19.3219C78.0155 18.472 77.8723 17.6673 77.5859 16.9078C77.2995 16.1483 76.9096 15.4882 76.4164 14.9277C75.9231 14.3671 75.3423 13.9241 74.6741 13.5986C74.0058 13.2731 73.2977 13.1103 72.5499 13.1103ZM87.3931 19.9186C87.7272 19.9186 88.0454 19.991 88.3478 20.1356C88.6501 20.2803 88.9126 20.4882 89.1354 20.7595C89.3581 21.0127 89.5332 21.311 89.6604 21.6546C89.7877 21.9982 89.8514 22.3599 89.8514 22.7396C89.8514 23.1193 89.7877 23.481 89.6604 23.8246C89.5332 24.1682 89.3581 24.4665 89.1354 24.7197C88.9126 24.9729 88.6501 25.1718 88.3478 25.3165C88.0454 25.4611 87.7272 25.5335 87.3931 25.5335H81.0205V26.7541H87.3931C87.8704 26.7541 88.3239 26.6546 88.7535 26.4557C89.1831 26.2387 89.557 25.9494 89.8753 25.5877C90.2094 25.208 90.464 24.774 90.639 24.2857C90.8299 23.7975 90.9254 23.2821 90.9254 22.7396C90.9254 22.179 90.8299 21.6546 90.639 21.1664C90.464 20.6781 90.2094 20.2532 89.8753 19.8915C89.557 19.5118 89.1831 19.2224 88.7535 19.0235C88.3239 18.8065 87.8704 18.698 87.3931 18.698H84.5529C84.2187 18.698 83.9005 18.6257 83.5982 18.481C83.2959 18.3363 83.0333 18.1374 82.8106 17.8843C82.5878 17.6311 82.4128 17.3327 82.2855 16.9891C82.1582 16.6456 82.0945 16.2839 82.0945 15.9042C82.0945 15.5244 82.1582 15.1627 82.2855 14.8192C82.4128 14.4756 82.5878 14.1772 82.8106 13.9241C83.0333 13.6528 83.2959 13.4448 83.5982 13.3002C83.9005 13.1555 84.2187 13.0832 84.5529 13.0832H90.9254V11.8626H84.5529C84.0755 11.8626 83.622 11.9711 83.1924 12.1881C82.7628 12.387 82.3809 12.6763 82.0468 13.0561C81.7286 13.4177 81.474 13.8427 81.283 14.3309C81.108 14.8192 81.0205 15.3436 81.0205 15.9042C81.0205 16.4647 81.108 16.9892 81.283 17.4774C81.474 17.9656 81.7286 18.3906 82.0468 18.7523C82.3809 19.1139 82.7628 19.4033 83.1924 19.6203C83.622 19.8192 84.0755 19.9186 84.5529 19.9186H87.3931ZM93.9355 26.7541V19.2948C93.9355 18.4448 94.0787 17.6492 94.3651 16.9078C94.6515 16.1483 95.0413 15.4882 95.5346 14.9277C96.0278 14.3671 96.6086 13.9241 97.2769 13.5986C97.9452 13.2731 98.6532 13.1103 99.4011 13.1103C100.149 13.1103 100.849 13.2731 101.501 13.5986C102.17 13.9241 102.75 14.3671 103.244 14.9277C103.737 15.4882 104.127 16.1483 104.413 16.9078C104.7 17.6492 104.843 18.4448 104.843 19.2948V26.7541H105.941V19.2948C105.941 18.264 105.766 17.3056 105.416 16.4195C105.081 15.5154 104.612 14.7288 104.007 14.0597C103.419 13.3725 102.727 12.8391 101.931 12.4593C101.151 12.0615 100.308 11.8626 99.4011 11.8626C98.2555 11.8626 97.2053 12.17 96.2506 12.7848C95.2959 13.3816 94.5242 14.1772 93.9355 15.1718V5.05425H92.8376V26.7541H93.9355ZM108.946 5.1085H107.872V19.9458C107.951 20.8861 108.174 21.7722 108.54 22.604C108.906 23.4358 109.375 24.1591 109.948 24.774C110.537 25.3888 111.205 25.877 111.953 26.2387C112.717 26.5823 113.528 26.7541 114.387 26.7541C115.294 26.7541 116.138 26.5642 116.917 26.1844C117.713 25.7866 118.405 25.2532 118.994 24.5841C119.583 23.8969 120.044 23.1103 120.378 22.2242C120.728 21.3201 120.903 20.3526 120.903 19.3219C120.903 18.2911 120.728 17.3327 120.378 16.4467C120.044 15.5425 119.583 14.7559 118.994 14.0868C118.405 13.4177 117.713 12.8933 116.917 12.5136C116.138 12.1157 115.294 11.9168 114.387 11.9168C113.242 11.9168 112.192 12.2152 111.237 12.8119C110.298 13.4087 109.534 14.2134 108.946 15.226V5.1085ZM119.805 19.3219C119.805 20.1718 119.662 20.9765 119.376 21.736C119.089 22.4774 118.699 23.1284 118.206 23.689C117.729 24.2495 117.156 24.6926 116.488 25.0181C115.835 25.3436 115.135 25.5063 114.387 25.5063C113.64 25.5063 112.932 25.3436 112.263 25.0181C111.611 24.6926 111.038 24.2495 110.545 23.689C110.052 23.1284 109.662 22.4774 109.375 21.736C109.089 20.9765 108.946 20.1718 108.946 19.3219C108.946 18.472 109.089 17.6763 109.375 16.9349C109.662 16.1754 110.052 15.5244 110.545 14.9819C111.038 14.4213 111.611 13.9783 112.263 13.6528C112.932 13.3273 113.64 13.1646 114.387 13.1646C115.135 13.1646 115.835 13.3273 116.488 13.6528C117.156 13.9783 117.729 14.4213 118.206 14.9819C118.699 15.5244 119.089 16.1754 119.376 16.9349C119.662 17.6763 119.805 18.472 119.805 19.3219ZM122.811 19.2948C122.811 20.3255 122.979 21.2929 123.313 22.1971C123.663 23.1013 124.132 23.8969 124.721 24.5841C125.325 25.2532 126.026 25.7866 126.821 26.1844C127.617 26.5642 128.468 26.7541 129.375 26.7541C130.282 26.7541 131.133 26.5642 131.929 26.1844C132.724 25.7866 133.416 25.2532 134.005 24.5841C134.61 23.8969 135.079 23.1013 135.413 22.1971C135.763 21.2929 135.938 20.3255 135.938 19.2948C135.938 18.264 135.763 17.2966 135.413 16.3924C135.079 15.4882 134.61 14.7016 134.005 14.0326C133.416 13.3454 132.724 12.8119 131.929 12.4322C131.133 12.0344 130.282 11.8354 129.375 11.8354C128.468 11.8354 127.617 12.0344 126.821 12.4322C126.026 12.8119 125.325 13.3454 124.721 14.0326C124.132 14.7016 123.663 15.4882 123.313 16.3924C122.979 17.2966 122.811 18.264 122.811 19.2948ZM129.375 25.5063C128.627 25.5063 127.919 25.3436 127.251 25.0181C126.583 24.6926 126.002 24.2495 125.508 23.689C125.015 23.1284 124.625 22.4684 124.339 21.7089C124.053 20.9494 123.909 20.1447 123.909 19.2948C123.909 18.4448 124.053 17.6401 124.339 16.8807C124.625 16.1212 125.015 15.4611 125.508 14.9005C126.002 14.34 126.583 13.8969 127.251 13.5714C127.919 13.2459 128.627 13.0832 129.375 13.0832C130.123 13.0832 130.831 13.2459 131.499 13.5714C132.167 13.8969 132.748 14.34 133.241 14.9005C133.735 15.4611 134.125 16.1212 134.411 16.8807C134.697 17.6401 134.841 18.4448 134.841 19.2948C134.841 20.1447 134.697 20.9494 134.411 21.7089C134.125 22.4684 133.735 23.1284 133.241 23.689C132.748 24.2495 132.167 24.6926 131.499 25.0181C130.831 25.3436 130.123 25.5063 129.375 25.5063ZM149.85 18.698L150.924 19.1591V26.7541H149.85V18.698ZM144.385 26.7541C143.478 26.7541 142.626 26.5642 141.831 26.1844C141.051 25.7866 140.359 25.2532 139.754 24.5841C139.166 23.8969 138.696 23.1103 138.346 22.2242C138.012 21.3201 137.845 20.3526 137.845 19.3219C137.845 18.2911 138.012 17.3237 138.346 16.4195C138.696 15.5154 139.166 14.7288 139.754 14.0597C140.359 13.3725 141.051 12.8391 141.831 12.4593C142.626 12.0615 143.478 11.8626 144.385 11.8626C145.292 11.8626 146.143 12.0615 146.938 12.4593C147.734 12.8391 148.426 13.3725 149.015 14.0597C149.62 14.7288 150.089 15.5154 150.423 16.4195C150.773 17.3237 150.948 18.2911 150.948 19.3219C150.948 20.3526 150.773 21.3201 150.423 22.2242C150.089 23.1103 149.62 23.8969 149.015 24.5841C148.426 25.2532 147.734 25.7866 146.938 26.1844C146.143 26.5642 145.292 26.7541 144.385 26.7541ZM144.385 13.1103C143.637 13.1103 142.929 13.2731 142.26 13.5986C141.608 13.9241 141.035 14.3671 140.542 14.9277C140.049 15.4882 139.659 16.1483 139.373 16.9078C139.086 17.6673 138.943 18.472 138.943 19.3219C138.943 20.1718 139.086 20.9765 139.373 21.736C139.659 22.4774 140.049 23.1284 140.542 23.689C141.035 24.2495 141.608 24.6926 142.26 25.0181C142.929 25.3436 143.637 25.5063 144.385 25.5063C145.133 25.5063 145.841 25.3436 146.509 25.0181C147.177 24.6926 147.758 24.2495 148.251 23.689C148.744 23.1284 149.134 22.4774 149.421 21.736C149.707 20.9765 149.85 20.1718 149.85 19.3219C149.85 18.472 149.707 17.6673 149.421 16.9078C149.134 16.1483 148.744 15.4882 148.251 14.9277C147.758 14.3671 147.177 13.9241 146.509 13.5986C145.841 13.2731 145.133 13.1103 144.385 13.1103ZM159.395 11.8626C158.488 11.8626 157.637 12.0615 156.841 12.4593C156.061 12.8391 155.369 13.3725 154.765 14.0597C154.176 14.7288 153.707 15.5154 153.357 16.4195C153.022 17.3237 152.855 18.2911 152.855 19.3219V26.7541H153.953V19.3219C153.953 18.472 154.096 17.6673 154.383 16.9078C154.669 16.1483 155.059 15.4882 155.552 14.9277C156.046 14.3671 156.618 13.9241 157.271 13.5986C157.939 13.2731 158.647 13.1103 159.395 13.1103H159.944V11.8626H159.395ZM174.955 5H173.881V15.1718C173.277 14.1591 172.497 13.3544 171.542 12.7577C170.603 12.1429 169.561 11.8354 168.416 11.8354C167.509 11.8354 166.657 12.0344 165.862 12.4322C165.066 12.8119 164.366 13.3454 163.762 14.0326C163.173 14.7016 162.703 15.4882 162.353 16.3924C162.019 17.2966 161.852 18.264 161.852 19.2948C161.852 20.3255 162.019 21.2929 162.353 22.1971C162.703 23.1013 163.173 23.8969 163.762 24.5841C164.366 25.2532 165.066 25.7866 165.862 26.1844C166.657 26.5642 167.509 26.7541 168.416 26.7541C169.275 26.7541 170.086 26.5823 170.85 26.2387C171.614 25.877 172.282 25.3888 172.855 24.774C173.444 24.1591 173.921 23.4358 174.287 22.604C174.669 21.7722 174.892 20.877 174.955 19.9186V5ZM168.416 25.5063C167.668 25.5063 166.96 25.3436 166.291 25.0181C165.623 24.6926 165.042 24.2495 164.549 23.689C164.056 23.1284 163.666 22.4684 163.38 21.7089C163.093 20.9494 162.95 20.1447 162.95 19.2948C162.95 18.4448 163.093 17.6401 163.38 16.8807C163.666 16.1212 164.056 15.4611 164.549 14.9005C165.042 14.34 165.623 13.8969 166.291 13.5714C166.96 13.2459 167.668 13.0832 168.416 13.0832C169.163 13.0832 169.872 13.2459 170.54 13.5714C171.208 13.8969 171.789 14.34 172.282 14.9005C172.775 15.4611 173.165 16.1212 173.452 16.8807C173.738 17.6401 173.881 18.4448 173.881 19.2948C173.881 20.1447 173.738 20.9494 173.452 21.7089C173.165 22.4684 172.775 23.1284 172.282 23.689C171.789 24.2495 171.208 24.6926 170.54 25.0181C169.872 25.3436 169.163 25.5063 168.416 25.5063ZM196.208 26.6998H197.306V19.2948C197.306 18.264 197.131 17.3056 196.781 16.4195C196.447 15.5154 195.986 14.7288 195.397 14.0597C194.808 13.3725 194.116 12.8391 193.321 12.4593C192.525 12.0615 191.682 11.8626 190.791 11.8626C189.884 11.8626 189.032 12.0615 188.237 12.4593C187.457 12.8391 186.765 13.3725 186.16 14.0597C185.572 14.7288 185.102 15.5154 184.752 16.4195C184.418 17.3056 184.251 18.264 184.251 19.2948V26.6998H185.349V19.2948C185.349 18.4448 185.492 17.6492 185.778 16.9078C186.065 16.1483 186.455 15.4882 186.948 14.9277C187.441 14.3671 188.014 13.9241 188.666 13.5986C189.335 13.2731 190.043 13.1103 190.791 13.1103C191.538 13.1103 192.239 13.2731 192.891 13.5986C193.559 13.9241 194.132 14.3671 194.609 14.9277C195.103 15.4882 195.492 16.1483 195.779 16.9078C196.065 17.6492 196.208 18.4448 196.208 19.2948V26.6998ZM191.34 26.7541V18.698H190.242V26.7541H191.34ZM199.215 19.2948C199.215 20.3255 199.382 21.2929 199.716 22.1971C200.066 23.1013 200.535 23.8969 201.124 24.5841C201.729 25.2532 202.429 25.7866 203.224 26.1844C204.02 26.5642 204.871 26.7541 205.778 26.7541C206.685 26.7541 207.536 26.5642 208.332 26.1844C209.127 25.7866 209.82 25.2532 210.408 24.5841C211.013 23.8969 211.482 23.1013 211.817 22.1971C212.167 21.2929 212.342 20.3255 212.342 19.2948C212.342 18.264 212.167 17.2966 211.817 16.3924C211.482 15.4882 211.013 14.7016 210.408 14.0326C209.82 13.3454 209.127 12.8119 208.332 12.4322C207.536 12.0344 206.685 11.8354 205.778 11.8354C204.871 11.8354 204.02 12.0344 203.224 12.4322C202.429 12.8119 201.729 13.3454 201.124 14.0326C200.535 14.7016 200.066 15.4882 199.716 16.3924C199.382 17.2966 199.215 18.264 199.215 19.2948ZM205.778 25.5063C205.03 25.5063 204.322 25.3436 203.654 25.0181C202.986 24.6926 202.405 24.2495 201.912 23.689C201.418 23.1284 201.029 22.4684 200.742 21.7089C200.456 20.9494 200.313 20.1447 200.313 19.2948C200.313 18.4448 200.456 17.6401 200.742 16.8807C201.029 16.1212 201.418 15.4611 201.912 14.9005C202.405 14.34 202.986 13.8969 203.654 13.5714C204.322 13.2459 205.03 13.0832 205.778 13.0832C206.526 13.0832 207.234 13.2459 207.902 13.5714C208.571 13.8969 209.151 14.34 209.645 14.9005C210.138 15.4611 210.528 16.1212 210.814 16.8807C211.1 17.6401 211.244 18.4448 211.244 19.2948C211.244 20.1447 211.1 20.9494 210.814 21.7089C210.528 22.4684 210.138 23.1284 209.645 23.689C209.151 24.2495 208.571 24.6926 207.902 25.0181C207.234 25.3436 206.526 25.5063 205.778 25.5063ZM214.248 19.3219V26.7541H215.346V19.3219C215.346 18.472 215.489 17.6763 215.776 16.9349C216.062 16.1754 216.452 15.5154 216.945 14.9548C217.438 14.3942 218.011 13.9512 218.664 13.6257C219.332 13.3002 220.04 13.1374 220.788 13.1374C221.536 13.1374 222.236 13.3002 222.888 13.6257C223.556 13.9512 224.137 14.3942 224.63 14.9548C225.124 15.5154 225.514 16.1754 225.8 16.9349C226.086 17.6763 226.23 18.472 226.23 19.3219V26.7541H227.327V19.3219C227.327 18.2911 227.152 17.3327 226.802 16.4467C226.468 15.5425 225.999 14.7559 225.394 14.0868C224.805 13.3996 224.113 12.8662 223.318 12.4864C222.538 12.0886 221.695 11.8897 220.788 11.8897C219.881 11.8897 219.03 12.0886 218.234 12.4864C217.454 12.8662 216.762 13.3996 216.158 14.0868C215.569 14.7559 215.099 15.5425 214.749 16.4467C214.415 17.3327 214.248 18.2911 214.248 19.3219ZM235.584 13.0832H241.933V11.8354H235.584C234.709 11.8354 233.882 12.0344 233.102 12.4322C232.338 12.8119 231.662 13.3454 231.073 14.0326C230.501 14.7016 230.047 15.4882 229.713 16.3924C229.379 17.2966 229.212 18.264 229.212 19.2948C229.212 20.3255 229.379 21.2929 229.713 22.1971C230.047 23.1013 230.501 23.8969 231.073 24.5841C231.662 25.2532 232.338 25.7866 233.102 26.1844C233.882 26.5642 234.709 26.7541 235.584 26.7541H241.933V25.5063H235.584C234.852 25.5063 234.16 25.3436 233.508 25.0181C232.871 24.6926 232.315 24.2495 231.837 23.689C231.36 23.1284 230.978 22.4684 230.692 21.7089C230.421 20.9494 230.286 20.1447 230.286 19.2948C230.286 18.4448 230.421 17.6401 230.692 16.8807C230.978 16.1212 231.36 15.4611 231.837 14.9005C232.315 14.34 232.871 13.8969 233.508 13.5714C234.16 13.2459 234.852 13.0832 235.584 13.0832ZM241.933 19.9186V18.6709H235.035V19.9186H241.933ZM249.864 33.7523V35H250.413C251.542 35 252.521 34.7288 253.348 34.1863C254.176 33.6618 254.86 32.9656 255.401 32.0976C255.942 31.2477 256.34 30.2712 256.594 29.1682C256.865 28.0651 257 26.9439 257 25.8047V11.8083H255.878V19.2948C255.878 20.1447 255.735 20.9494 255.449 21.7089C255.162 22.4684 254.772 23.1284 254.279 23.689C253.786 24.2495 253.205 24.6926 252.537 25.0181C251.884 25.3436 251.176 25.5063 250.413 25.5063C249.665 25.5063 248.957 25.3436 248.288 25.0181C247.62 24.6926 247.039 24.2495 246.546 23.689C246.053 23.1103 245.663 22.4503 245.377 21.7089C245.09 20.9494 244.947 20.1356 244.947 19.2676V11.8083H243.849V19.2676C243.849 20.2984 244.016 21.2658 244.35 22.17C244.7 23.0741 245.17 23.8698 245.759 24.557C246.363 25.226 247.063 25.7595 247.859 26.1573C248.654 26.5552 249.506 26.7541 250.413 26.7541C251.558 26.7541 252.608 26.4557 253.563 25.859C254.518 25.2441 255.29 24.4304 255.878 23.4177V25.8047C255.878 26.9982 255.743 28.0832 255.472 29.0597C255.218 30.0362 254.852 30.868 254.375 31.5552C253.897 32.2604 253.316 32.8029 252.632 33.1826C251.964 33.5624 251.224 33.7523 250.413 33.7523H249.864Z" fill="white"/>
<path d="M34.1422 5.85781C30.3647 2.08031 25.3422 0 20 0C14.6578 0 9.63531 2.08031 5.85781 5.85781C2.08031 9.63531 0 14.6578 0 20C0 25.3422 2.08039 30.3646 5.85781 34.1422C9.63523 37.9198 14.6578 40 20 40C25.3422 40 30.3647 37.9197 34.1422 34.1422C37.9197 30.3647 40 25.3422 40 20C40 14.6578 37.9196 9.63539 34.1422 5.85781Z" fill="#33CC95"/>
<g clip-path="url(#clip0_35212_417)">
<path d="M20.5714 8V33.1429" stroke="white" stroke-width="2" stroke-linecap="round" stroke-linejoin="round"/>
<path d="M26.2857 12.5714H17.7143C16.6534 12.5714 15.636 12.9929 14.8859 13.743C14.1357 14.4931 13.7143 15.5106 13.7143 16.5714C13.7143 17.6323 14.1357 18.6497 14.8859 19.3999C15.636 20.15 16.6534 20.5714 17.7143 20.5714H23.4286C24.4894 20.5714 25.5069 20.9929 26.257 21.743C27.0072 22.4932 27.4286 23.5106 27.4286 24.5714C27.4286 25.6323 27.0072 26.6497 26.257 27.3999C25.5069 28.15 24.4894 28.5714 23.4286 28.5714H13.7143" stroke="white" stroke-width="2" stroke-linecap="round" stroke-linejoin="round"/>
</g>
<defs>
<clipPath id="clip0_35212_417">
<rect width="27.4286" height="27.4286" fill="white" transform="translate(6.85715 6.85714)"/>
</clipPath>
</defs>
</svg>
